<?xml version="1.0" encoding="UTF-8"?>
<!DOCTYPE svg PUBLIC "-//W3C//DTD SVG 1.1//EN" "http://www.w3.org/Graphics/SVG/1.1/DTD/svg11.dtd">
<svg xmlns="http://www.w3.org/2000/svg" version="1.1" width="493px" height="142px" style="shape-rendering:geometricPrecision; text-rendering:geometricPrecision; image-rendering:optimizeQuality; fill-rule:evenodd; clip-rule:evenodd" xmlns:xlink="http://www.w3.org/1999/xlink">
<g><path style="opacity:1" fill="#fefefd" d="M -0.5,-0.5 C 163.833,-0.5 328.167,-0.5 492.5,-0.5C 492.5,46.8333 492.5,94.1667 492.5,141.5C 328.167,141.5 163.833,141.5 -0.5,141.5C -0.5,94.1667 -0.5,46.8333 -0.5,-0.5 Z"/></g>
<g><path style="opacity:1" fill="#daf7fb" d="M 73.5,32.5 C 72.1332,28.922 70.4665,25.422 68.5,22C 63.1357,21.1705 57.8023,21.3372 52.5,22.5C 50.9934,24.9686 51.3268,27.1353 53.5,29C 57.0252,29.1787 60.3586,29.6787 63.5,30.5C 59.1667,30.5 54.8333,30.5 50.5,30.5C 50.5,28.8333 50.5,27.1667 50.5,25.5C 48.6453,25.728 47.8119,25.0613 48,23.5C 50.0092,22.0968 52.0092,20.7635 54,19.5C 55.9843,19.9263 57.9843,20.2597 60,20.5C 63.2901,18.8693 66.7901,18.3693 70.5,19C 72.0707,23.3514 73.0707,27.8514 73.5,32.5 Z"/></g>
<g><path style="opacity:1" fill="#fcf2e0" d="M 134.5,35.5 C 137.173,36.7026 139.84,36.7026 142.5,35.5C 143.466,37.396 143.799,39.396 143.5,41.5C 145.484,41.3832 147.15,42.0499 148.5,43.5C 148.97,47.201 150.303,50.5344 152.5,53.5C 149.59,54.902 147.09,56.902 145,59.5C 144.316,60.7839 144.483,61.9505 145.5,63C 143.833,63.6667 142.167,63.6667 140.5,63C 142.439,62.0922 143.439,60.5922 143.5,58.5C 140.589,60.4667 137.256,61.4667 133.5,61.5C 138.081,58.799 142.915,56.4656 148,54.5C 148.838,51.5193 148.005,49.1859 145.5,47.5C 143.952,47.1788 143.285,46.1788 143.5,44.5C 140.854,41.1877 137.854,38.1877 134.5,35.5 Z"/></g>
<g><path style="opacity:1" fill="#fcfaf4" d="M 119.5,56.5 C 116.794,56.4249 114.127,56.0916 111.5,55.5C 111.5,56.8333 111.5,58.1667 111.5,59.5C 107.32,59.594 103.653,60.9274 100.5,63.5C 100.167,62.1667 99.8333,60.8333 99.5,59.5C 100.507,55.4915 101.507,51.4915 102.5,47.5C 113.611,37.7378 124.278,38.2378 134.5,49C 130.067,52.5497 125.067,55.0497 119.5,56.5 Z"/></g>
<g><path style="opacity:1" fill="#f7882a" d="M 143.5,44.5 C 143.285,46.1788 143.952,47.1788 145.5,47.5C 145.799,49.604 145.466,51.604 144.5,53.5C 143.672,52.5853 142.672,51.9186 141.5,51.5C 139.058,53.13 137.058,52.7967 135.5,50.5C 141.802,48.5458 141.635,46.5458 135,44.5C 134.517,43.552 134.351,42.552 134.5,41.5C 130.481,41.3542 126.481,41.0209 122.5,40.5C 122.33,39.1779 122.663,38.0113 123.5,37C 126.126,37.148 128.626,36.9813 131,36.5C 135.245,39.0395 139.412,41.7061 143.5,44.5 Z"/></g>
<g><path style="opacity:1" fill="#fcf8ea" d="M 268.5,48.5 C 267.5,49.1667 266.5,49.8333 265.5,50.5C 263.956,50.7031 262.622,51.3698 261.5,52.5C 260.614,51.675 260.281,50.675 260.5,49.5C 257.833,49.5 255.167,49.5 252.5,49.5C 252.5,60.8333 252.5,72.1667 252.5,83.5C 255.167,83.5 257.833,83.5 260.5,83.5C 257.696,84.6378 254.696,84.8045 251.5,84C 249.494,81.1583 248.161,77.9916 247.5,74.5C 246.817,74.8627 246.15,75.1961 245.5,75.5C 246.579,69.5508 246.746,63.5508 246,57.5C 243.946,54.6256 241.779,51.9589 239.5,49.5C 239.082,48.7784 238.416,48.2784 237.5,48C 241.833,47.3333 246.167,47.3333 250.5,48C 247.41,52.7181 247.077,57.5514 249.5,62.5C 248.074,66.9017 248.241,71.235 250,75.5C 250.194,66.4524 250.694,57.4524 251.5,48.5C 257.065,48.2793 262.732,48.2793 268.5,48.5 Z"/></g>
<g><path style="opacity:1" fill="#f3d3b1" d="M 234.5,49.5 C 230.629,49.185 226.962,49.5184 223.5,50.5C 222.833,50.5 222.167,50.5 221.5,50.5C 221.281,49.325 221.614,48.325 222.5,47.5C 226.635,48.1091 230.635,48.7757 234.5,49.5 Z"/></g>
<g><path style="opacity:1" fill="#f78a23" d="M 234.5,49.5 C 235.167,49.5 235.833,49.5 236.5,49.5C 236.5,50.8333 236.5,52.1667 236.5,53.5C 233.133,53.5429 229.799,53.2096 226.5,52.5C 224.97,52.3601 223.97,51.6935 223.5,50.5C 226.962,49.5184 230.629,49.185 234.5,49.5 Z"/></g>
<g><path style="opacity:1" fill="#dd984e" d="M 268.5,48.5 C 272.775,47.7497 276.109,49.083 278.5,52.5C 274.133,52.0133 269.799,51.3467 265.5,50.5C 266.5,49.8333 267.5,49.1667 268.5,48.5 Z"/></g>
<g><path style="opacity:1" fill="#e1964e" d="M 236.5,49.5 C 237.5,49.5 238.5,49.5 239.5,49.5C 241.779,51.9589 243.946,54.6256 246,57.5C 246.746,63.5508 246.579,69.5508 245.5,75.5C 244.833,76.1667 244.167,76.8333 243.5,77.5C 243.517,75.4352 243.85,73.4352 244.5,71.5C 245.881,66.4929 245.714,61.4929 244,56.5C 241.865,54.7215 239.365,54.0548 236.5,54.5C 236.5,55.5 236.5,56.5 236.5,57.5C 233.214,56.7929 229.881,56.4595 226.5,56.5C 225.816,54.8148 224.483,53.8148 222.5,53.5C 216.677,56.2569 214.01,60.9236 214.5,67.5C 214.399,71.0728 215.066,74.4061 216.5,77.5C 215.685,76.5707 214.852,75.5707 214,74.5C 213.267,69.1149 213.433,63.7815 214.5,58.5C 216.117,55.2157 218.45,52.5491 221.5,50.5C 222.167,50.5 222.833,50.5 223.5,50.5C 223.97,51.6935 224.97,52.3601 226.5,52.5C 229.799,53.2096 233.133,53.5429 236.5,53.5C 236.5,52.1667 236.5,50.8333 236.5,49.5 Z"/></g>
<g><path style="opacity:1" fill="#e09758" d="M 471.5,48.5 C 474.345,49.5384 477.012,50.8718 479.5,52.5C 460.72,48.0486 452.386,55.3819 454.5,74.5C 453.243,69.2971 453.243,63.9638 454.5,58.5C 458.173,51.1804 463.84,47.8471 471.5,48.5 Z"/></g>
<g><path style="opacity:1" fill="#f28b2e" d="M 97.5,57.5 C 97.5,58.1667 97.5,58.8333 97.5,59.5C 95.7345,62.1226 95.0679,65.1226 95.5,68.5C 98.8097,68.461 101.476,69.7943 103.5,72.5C 102.311,73.4287 100.978,73.762 99.5,73.5C 100.388,76.7138 101.721,79.7138 103.5,82.5C 100.692,82.6933 98.0248,83.36 95.5,84.5C 92.5035,81.5026 90.8369,77.836 90.5,73.5C 88.8637,68.2733 88.3637,62.94 89,57.5C 91.2863,54.635 92.1197,51.3017 91.5,47.5C 93.0174,47.4894 94.1841,46.8228 95,45.5C 95.1875,49.7232 96.0208,53.7232 97.5,57.5 Z"/></g>
<g><path style="opacity:1" fill="#f4882b" d="M 265.5,50.5 C 269.799,51.3467 274.133,52.0133 278.5,52.5C 279.167,52.5 279.5,52.8333 279.5,53.5C 279.586,54.4959 279.252,55.3292 278.5,56C 275.97,56.3793 273.637,57.2126 271.5,58.5C 271.03,57.3065 270.03,56.6399 268.5,56.5C 266.045,56.6284 264.045,57.6284 262.5,59.5C 259.722,59.9783 257.722,58.9783 256.5,56.5C 255.719,57.7287 255.219,59.062 255,60.5C 254.768,59.2625 254.268,58.2625 253.5,57.5C 253.5,55.1667 253.5,52.8333 253.5,50.5C 257.167,51.8333 260.833,53.1667 264.5,54.5C 264.433,53.0413 264.766,51.7079 265.5,50.5 Z"/></g>
<g><path style="opacity:1" fill="#eb8c38" d="M 335.5,52.5 C 334.993,53.8589 333.993,54.8589 332.5,55.5C 334.304,56.7681 336.304,57.4348 338.5,57.5C 338.5,65.8333 338.5,74.1667 338.5,82.5C 336.052,83.4731 333.385,83.8064 330.5,83.5C 330.666,75.4931 330.5,67.4931 330,59.5C 328.649,57.9903 326.982,56.9903 325,56.5C 322.659,58.0162 320.492,59.6828 318.5,61.5C 317.51,67.31 317.177,73.31 317.5,79.5C 316.833,74.3187 316.167,68.9853 315.5,63.5C 314.833,68.8333 314.167,74.1667 313.5,79.5C 312.293,73.1571 312.293,66.8237 313.5,60.5C 312.5,60.5 311.5,60.5 310.5,60.5C 308.824,51.474 311.491,49.474 318.5,54.5C 319.298,54.0431 319.631,53.3764 319.5,52.5C 320.058,51.2101 321.058,50.3768 322.5,50C 326.167,49.3333 329.833,49.3333 333.5,50C 334.756,50.4169 335.423,51.2502 335.5,52.5 Z"/></g>
<g><path style="opacity:1" fill="#e89b55" d="M 351.5,82.5 C 353.833,82.5 356.167,82.5 358.5,82.5C 358.916,73.7357 358.25,65.069 356.5,56.5C 355.543,52.4029 353.543,51.7362 350.5,54.5C 349.571,53.3112 349.238,51.9778 349.5,50.5C 345.545,49.9211 342.545,51.2544 340.5,54.5C 343.616,54.9201 346.283,55.9201 348.5,57.5C 344.836,55.7982 342.003,56.7982 340,60.5C 339.829,68.0115 339.329,75.3448 338.5,82.5C 338.5,74.1667 338.5,65.8333 338.5,57.5C 336.304,57.4348 334.304,56.7681 332.5,55.5C 333.993,54.8589 334.993,53.8589 335.5,52.5C 338.192,53.7899 340.192,52.9565 341.5,50C 347.715,48.4605 353.215,49.6271 358,53.5C 359.365,63.4434 359.865,73.4434 359.5,83.5C 356.615,83.8064 353.948,83.4731 351.5,82.5 Z"/></g>
<g><path style="opacity:1" fill="#f28a2d" d="M 351.5,82.5 C 351.428,74.1075 351.595,65.7741 352,57.5C 351.014,58.1712 349.847,58.1712 348.5,57.5C 346.283,55.9201 343.616,54.9201 340.5,54.5C 342.545,51.2544 345.545,49.9211 349.5,50.5C 349.238,51.9778 349.571,53.3112 350.5,54.5C 353.543,51.7362 355.543,52.4029 356.5,56.5C 358.25,65.069 358.916,73.7357 358.5,82.5C 356.167,82.5 353.833,82.5 351.5,82.5 Z"/></g>
<g><path style="opacity:1" fill="#f38a2d" d="M 226.5,56.5 C 225.211,57.6366 224.211,58.9699 223.5,60.5C 222.167,60.5 220.833,60.5 219.5,60.5C 219.045,62.3666 218.378,64.1999 217.5,66C 218.759,68.8569 219.425,71.8569 219.5,75C 219.431,76.9855 218.765,78.4855 217.5,79.5C 216.662,79.1583 216.328,78.4916 216.5,77.5C 215.066,74.4061 214.399,71.0728 214.5,67.5C 214.01,60.9236 216.677,56.2569 222.5,53.5C 224.483,53.8148 225.816,54.8148 226.5,56.5 Z"/></g>
<g><path style="opacity:1" fill="#f4892e" d="M 289.5,49.5 C 290.5,49.5 291.5,49.5 292.5,49.5C 293.841,51.12 295.674,52.12 298,52.5C 299,54.8333 300,57.1667 301,59.5C 301.767,67.2155 301.6,74.8821 300.5,82.5C 298.533,82.7394 296.699,82.4061 295,81.5C 294.828,75.3193 294.328,69.3193 293.5,63.5C 293.5,62.1667 293.5,60.8333 293.5,59.5C 292.664,55.8094 290.664,54.8094 287.5,56.5C 286.833,56.8333 286.167,57.1667 285.5,57.5C 283.656,56.7961 283.156,55.4628 284,53.5C 286.131,52.3852 287.965,51.0519 289.5,49.5 Z"/></g>
<g><path style="opacity:1" fill="#e59851" d="M 413.5,59.5 C 413.167,59.5 412.833,59.5 412.5,59.5C 412.179,57.9519 411.179,57.2852 409.5,57.5C 409.326,55.139 408.993,52.8056 408.5,50.5C 409.472,52.4931 410.805,52.8264 412.5,51.5C 414.429,48.8653 417.095,48.032 420.5,49C 421.444,51.7191 421.777,54.5525 421.5,57.5C 418.302,56.9644 415.635,57.631 413.5,59.5 Z"/></g>
<g><path style="opacity:1" fill="#f3892a" d="M 412.5,51.5 C 415.054,50.612 417.721,50.2786 420.5,50.5C 420.5,52.5 420.5,54.5 420.5,56.5C 419.167,56.5 417.833,56.5 416.5,56.5C 416.649,55.448 416.483,54.448 416,53.5C 412.468,56.3653 411.301,55.6986 412.5,51.5 Z"/></g>
<g><path style="opacity:1" fill="#f18b2f" d="M 479.5,52.5 C 481.352,57.2498 482.352,62.2498 482.5,67.5C 475.109,67.7988 467.776,67.4655 460.5,66.5C 459.13,70.0578 460.13,72.7244 463.5,74.5C 463.791,75.6491 464.624,76.3158 466,76.5C 469.125,77.256 472.291,77.5893 475.5,77.5C 476.978,77.238 478.311,77.5713 479.5,78.5C 477.922,79.2978 476.256,79.7978 474.5,80C 476.744,80.0496 478.411,80.8829 479.5,82.5C 473.681,83.6525 467.681,83.8192 461.5,83C 459.599,81.361 457.599,79.861 455.5,78.5C 455.672,77.5084 455.338,76.8417 454.5,76.5C 454.5,75.8333 454.5,75.1667 454.5,74.5C 452.386,55.3819 460.72,48.0486 479.5,52.5 Z"/></g>
<g><path style="opacity:1" fill="#e3a87c" d="M 287.5,56.5 C 290.664,54.8094 292.664,55.8094 293.5,59.5C 293.167,59.5 292.833,59.5 292.5,59.5C 291.232,57.953 289.565,56.953 287.5,56.5 Z"/></g>
<g><path style="opacity:1" fill="#e7ab76" d="M 265.5,50.5 C 264.766,51.7079 264.433,53.0413 264.5,54.5C 260.833,53.1667 257.167,51.8333 253.5,50.5C 253.5,52.8333 253.5,55.1667 253.5,57.5C 252.865,66.2337 253.532,74.5671 255.5,82.5C 256.5,82.5 257.5,82.5 258.5,82.5C 259.5,82.5 260.5,82.5 261.5,82.5C 261.5,82.8333 261.5,83.1667 261.5,83.5C 261.167,83.5 260.833,83.5 260.5,83.5C 257.833,83.5 255.167,83.5 252.5,83.5C 252.5,72.1667 252.5,60.8333 252.5,49.5C 255.167,49.5 257.833,49.5 260.5,49.5C 260.281,50.675 260.614,51.675 261.5,52.5C 262.622,51.3698 263.956,50.7031 265.5,50.5 Z"/></g>
<g><path style="opacity:1" fill="#f9f8f0" d="M 471.5,55.5 C 472.63,57.3146 473.296,59.3146 473.5,61.5C 470.214,62.2071 466.881,62.5405 463.5,62.5C 463.5,61.5 463.5,60.5 463.5,59.5C 463.511,57.9826 464.177,56.8159 465.5,56C 467.473,55.5045 469.473,55.3379 471.5,55.5 Z"/></g>
<g><path style="opacity:1" fill="#faf9f0" d="M 226.5,56.5 C 229.881,56.4595 233.214,56.7929 236.5,57.5C 237.937,63.5347 237.77,69.5347 236,75.5C 231.362,77.266 227.196,76.5993 223.5,73.5C 223.5,73.1667 223.5,72.8333 223.5,72.5C 222.322,68.5478 222.322,64.5478 223.5,60.5C 224.211,58.9699 225.211,57.6366 226.5,56.5 Z"/></g>
<g><path style="opacity:1" fill="#f3892e" d="M 244.5,71.5 C 243.18,72.9418 241.514,73.6085 239.5,73.5C 239.819,75.7505 239.319,77.7505 238,79.5C 237.333,77.1667 237.333,74.8333 238,72.5C 243.113,66.6779 242.613,61.6779 236.5,57.5C 236.5,56.5 236.5,55.5 236.5,54.5C 239.365,54.0548 241.865,54.7215 244,56.5C 245.714,61.4929 245.881,66.4929 244.5,71.5 Z"/></g>
<g><path style="opacity:1" fill="#dd914b" d="M 436.5,56.5 C 436.167,57.1667 435.833,57.8333 435.5,58.5C 434.778,58.9175 434.278,59.5842 434,60.5C 433.502,63.8168 433.335,67.1501 433.5,70.5C 432.624,70.6309 431.957,70.2975 431.5,69.5C 430.833,67.1667 430.167,64.8333 429.5,62.5C 429.833,62.1667 430.167,61.8333 430.5,61.5C 431.298,63.0777 431.798,64.7444 432,66.5C 432.495,63.4686 432.329,60.4686 431.5,57.5C 433.216,57.3713 434.883,57.038 436.5,56.5 Z"/></g>
<g><path style="opacity:1" fill="#e29859" d="M 91.5,47.5 C 92.1197,51.3017 91.2863,54.635 89,57.5C 88.3637,62.94 88.8637,68.2733 90.5,73.5C 87.1417,66.512 86.6417,59.1787 89,51.5C 89.2004,49.6803 90.0337,48.347 91.5,47.5 Z"/></g>
<g><path style="opacity:1" fill="#ec8e39" d="M 209.5,73.5 C 209.815,77.3966 208.481,80.5632 205.5,83C 195.008,86.0826 188.175,82.5826 185,72.5C 182.922,63.7177 185.089,56.3843 191.5,50.5C 197.381,47.6494 203.048,47.9827 208.5,51.5C 209.833,54.1667 209.833,56.8333 208.5,59.5C 195.928,53.5657 191.095,57.5657 194,71.5C 196.072,76.1433 199.572,77.6433 204.5,76C 205.91,74.6283 207.577,73.795 209.5,73.5 Z"/></g>
<g><path style="opacity:1" fill="#e98b3d" d="M 262.5,59.5 C 261.566,67.111 261.233,74.7777 261.5,82.5C 260.5,82.5 259.5,82.5 258.5,82.5C 257.43,78.9635 256.763,75.2969 256.5,71.5C 256.601,68.3004 257.268,65.3004 258.5,62.5C 257.675,61.6143 256.675,61.281 255.5,61.5C 254.741,68.5367 254.741,75.5367 255.5,82.5C 253.532,74.5671 252.865,66.2337 253.5,57.5C 254.268,58.2625 254.768,59.2625 255,60.5C 255.219,59.062 255.719,57.7287 256.5,56.5C 257.722,58.9783 259.722,59.9783 262.5,59.5 Z"/></g>
<g><path style="opacity:1" fill="#fcf3e3" d="M 449.5,51.5 C 450.817,54.2301 450.817,57.0635 449.5,60C 451.495,60.6128 453.162,60.1128 454.5,58.5C 453.243,63.9638 453.243,69.2971 454.5,74.5C 454.5,75.1667 454.5,75.8333 454.5,76.5C 453.85,76.1961 453.183,75.8627 452.5,75.5C 451.394,77.2844 451.394,79.1178 452.5,81C 452.241,82.2613 451.574,83.2613 450.5,84C 442.833,84.6667 435.167,84.6667 427.5,84C 425.325,80.1334 424.325,75.9667 424.5,71.5C 425.203,73.6287 426.203,75.6287 427.5,77.5C 427.328,78.4916 427.662,79.1583 428.5,79.5C 429.29,80.7942 430.29,81.9609 431.5,83C 436.871,83.6761 442.204,83.5095 447.5,82.5C 448.129,80.5351 448.796,78.5351 449.5,76.5C 449.167,75.5 448.833,74.5 448.5,73.5C 442.623,78.0411 437.623,77.3744 433.5,71.5C 433.5,71.1667 433.5,70.8333 433.5,70.5C 433.335,67.1501 433.502,63.8168 434,60.5C 434.278,59.5842 434.778,58.9175 435.5,58.5C 435.833,57.8333 436.167,57.1667 436.5,56.5C 440.644,56.33 444.644,56.9967 448.5,58.5C 449.474,56.2573 449.808,53.924 449.5,51.5 Z"/></g>
<g><path style="opacity:1" fill="#fef5e0" d="M 102.5,47.5 C 101.507,51.4915 100.507,55.4915 99.5,59.5C 99.8333,60.8333 100.167,62.1667 100.5,63.5C 103.653,60.9274 107.32,59.594 111.5,59.5C 111.5,58.1667 111.5,56.8333 111.5,55.5C 114.127,56.0916 116.794,56.4249 119.5,56.5C 115.04,59.1269 110.373,61.4603 105.5,63.5C 103.254,64.4552 100.921,65.1218 98.5,65.5C 98.5,62.8333 98.5,60.1667 98.5,57.5C 98.7516,53.6733 100.085,50.3399 102.5,47.5 Z"/></g>
<g><path style="opacity:1" fill="#ec8d3a" d="M 134.5,35.5 C 137.854,38.1877 140.854,41.1877 143.5,44.5C 139.412,41.7061 135.245,39.0395 131,36.5C 128.626,36.9813 126.126,37.148 123.5,37C 122.663,38.0113 122.33,39.1779 122.5,40.5C 126.481,41.0209 130.481,41.3542 134.5,41.5C 134.351,42.552 134.517,43.552 135,44.5C 141.635,46.5458 141.802,48.5458 135.5,50.5C 137.058,52.7967 139.058,53.13 141.5,51.5C 142.672,51.9186 143.672,52.5853 144.5,53.5C 145.466,51.604 145.799,49.604 145.5,47.5C 148.005,49.1859 148.838,51.5193 148,54.5C 142.915,56.4656 138.081,58.799 133.5,61.5C 122.618,65.2758 112.284,70.1092 102.5,76C 108.318,85.2212 116.651,88.5546 127.5,86C 130.391,84.7258 133.058,83.2258 135.5,81.5C 135.973,80.0937 136.973,79.427 138.5,79.5C 139.857,78.3146 141.357,77.3146 143,76.5C 144.138,76.9891 145.305,77.3225 146.5,77.5C 147.525,78.3739 148.192,79.5405 148.5,81C 147.258,83.2723 145.592,85.1056 143.5,86.5C 139.176,88.8505 135.176,91.5172 131.5,94.5C 116.913,99.8447 104.913,96.5113 95.5,84.5C 98.0248,83.36 100.692,82.6933 103.5,82.5C 101.721,79.7138 100.388,76.7138 99.5,73.5C 100.978,73.762 102.311,73.4287 103.5,72.5C 101.476,69.7943 98.8097,68.461 95.5,68.5C 95.0679,65.1226 95.7345,62.1226 97.5,59.5C 97.5,61.8333 97.5,64.1667 97.5,66.5C 100.917,66.977 103.584,65.977 105.5,63.5C 110.373,61.4603 115.04,59.1269 119.5,56.5C 125.067,55.0497 130.067,52.5497 134.5,49C 124.278,38.2378 113.611,37.7378 102.5,47.5C 100.085,50.3399 98.7516,53.6733 98.5,57.5C 98.1667,57.5 97.8333,57.5 97.5,57.5C 96.0208,53.7232 95.1875,49.7232 95,45.5C 94.1841,46.8228 93.0174,47.4894 91.5,47.5C 92.1335,44.3567 93.8002,41.8567 96.5,40C 108.239,30.5586 120.905,29.0586 134.5,35.5 Z"/></g>
<g><path style="opacity:1" fill="#fae6c6" d="M 471.5,55.5 C 474.407,57.3145 475.741,59.9812 475.5,63.5C 471.167,63.5 466.833,63.5 462.5,63.5C 462.232,61.901 462.566,60.5676 463.5,59.5C 463.5,60.5 463.5,61.5 463.5,62.5C 466.881,62.5405 470.214,62.2071 473.5,61.5C 473.296,59.3146 472.63,57.3146 471.5,55.5 Z"/></g>
<g><path style="opacity:1" fill="#fdf1e1" d="M 271.5,58.5 C 273.422,66.5637 274.088,74.897 273.5,83.5C 275.5,83.5 277.5,83.5 279.5,83.5C 280.496,83.5858 281.329,83.2524 282,82.5C 282.5,75.1742 282.666,67.8409 282.5,60.5C 282.833,60.5 283.167,60.5 283.5,60.5C 283.205,67.2257 283.538,73.8923 284.5,80.5C 281.296,87.0948 276.629,88.2614 270.5,84C 271.227,82.6012 271.727,81.1012 272,79.5C 272.499,74.1771 272.666,68.8437 272.5,63.5C 270.5,63.5 268.5,63.5 266.5,63.5C 266.159,84.7922 265.159,84.7922 263.5,63.5C 262.833,70.3214 262.167,76.9881 261.5,83.5C 261.5,83.1667 261.5,82.8333 261.5,82.5C 261.233,74.7777 261.566,67.111 262.5,59.5C 264.045,57.6284 266.045,56.6284 268.5,56.5C 270.03,56.6399 271.03,57.3065 271.5,58.5 Z"/></g>
<g><path style="opacity:1" fill="#fa861c" d="M 258.5,82.5 C 257.5,82.5 256.5,82.5 255.5,82.5C 254.741,75.5367 254.741,68.5367 255.5,61.5C 256.675,61.281 257.675,61.6143 258.5,62.5C 257.268,65.3004 256.601,68.3004 256.5,71.5C 256.763,75.2969 257.43,78.9635 258.5,82.5 Z"/></g>
<g><path style="opacity:1" fill="#e88a38" d="M 287.5,49.5 C 288.167,49.5 288.833,49.5 289.5,49.5C 287.965,51.0519 286.131,52.3852 284,53.5C 283.156,55.4628 283.656,56.7961 285.5,57.5C 284.833,58.5 284.167,59.5 283.5,60.5C 283.167,60.5 282.833,60.5 282.5,60.5C 282.03,59.3065 281.03,58.6399 279.5,58.5C 276.511,58.8014 275.178,60.4681 275.5,63.5C 276.5,63.5 277.5,63.5 278.5,63.5C 279.054,69.3951 278.388,75.0617 276.5,80.5C 278.007,81.7388 279.174,81.4054 280,79.5C 280.172,73.3193 280.672,67.3193 281.5,61.5C 281.666,68.175 281.5,74.8417 281,81.5C 280.283,82.0442 279.783,82.7109 279.5,83.5C 277.5,83.5 275.5,83.5 273.5,83.5C 274.088,74.897 273.422,66.5637 271.5,58.5C 273.637,57.2126 275.97,56.3793 278.5,56C 279.252,55.3292 279.586,54.4959 279.5,53.5C 282.385,52.6178 285.052,51.2845 287.5,49.5 Z"/></g>
<g><path style="opacity:1" fill="#f88a28" d="M 282.5,60.5 C 281.833,60.5 281.5,60.8333 281.5,61.5C 280.672,67.3193 280.172,73.3193 280,79.5C 279.174,81.4054 278.007,81.7388 276.5,80.5C 278.388,75.0617 279.054,69.3951 278.5,63.5C 277.5,63.5 276.5,63.5 275.5,63.5C 275.178,60.4681 276.511,58.8014 279.5,58.5C 281.03,58.6399 282.03,59.3065 282.5,60.5 Z"/></g>
<g><path style="opacity:1" fill="#ebc39c" d="M 282.5,60.5 C 282.666,67.8409 282.5,75.1742 282,82.5C 281.329,83.2524 280.496,83.5858 279.5,83.5C 279.783,82.7109 280.283,82.0442 281,81.5C 281.5,74.8417 281.666,68.175 281.5,61.5C 281.5,60.8333 281.833,60.5 282.5,60.5 Z"/></g>
<g><path style="opacity:1" fill="#db9e66" d="M 292.5,49.5 C 297.021,49.3919 300.188,51.3919 302,55.5C 302.667,64.1667 302.667,72.8333 302,81.5C 301.617,82.056 301.117,82.3893 300.5,82.5C 301.6,74.8821 301.767,67.2155 301,59.5C 300,57.1667 299,54.8333 298,52.5C 295.674,52.12 293.841,51.12 292.5,49.5 Z"/></g>
<g><path style="opacity:1" fill="#f98727" d="M 310.5,60.5 C 311.5,60.5 312.5,60.5 313.5,60.5C 312.293,66.8237 312.293,73.1571 313.5,79.5C 314.167,74.1667 314.833,68.8333 315.5,63.5C 316.167,68.9853 316.833,74.3187 317.5,79.5C 315.97,82.0209 313.636,83.0209 310.5,82.5C 310.5,75.1667 310.5,67.8333 310.5,60.5 Z"/></g>
<g><path style="opacity:1" fill="#de9b5f" d="M 319.5,52.5 C 319.631,53.3764 319.298,54.0431 318.5,54.5C 311.491,49.474 308.824,51.474 310.5,60.5C 310.5,67.8333 310.5,75.1667 310.5,82.5C 313.636,83.0209 315.97,82.0209 317.5,79.5C 317.177,73.31 317.51,67.31 318.5,61.5C 318.5,68.8333 318.5,76.1667 318.5,83.5C 315.5,83.5 312.5,83.5 309.5,83.5C 309.333,72.495 309.5,61.495 310,50.5C 312.381,49.565 314.881,49.2317 317.5,49.5C 317.285,51.1788 317.952,52.1788 319.5,52.5 Z"/></g>
<g><path style="opacity:1" fill="#f28a2c" d="M 331.5,61.5 C 332.833,61.5 334.167,61.5 335.5,61.5C 335.334,67.5092 335.501,73.5092 336,79.5C 336.333,74.1667 336.667,68.8333 337,63.5C 337.667,69.1667 337.667,74.8333 337,80.5C 335.604,82.5268 333.938,82.8602 332,81.5C 331.5,74.8417 331.334,68.175 331.5,61.5 Z"/></g>
<g><path style="opacity:1" fill="#de9a5c" d="M 348.5,57.5 C 349.847,58.1712 351.014,58.1712 352,57.5C 351.595,65.7741 351.428,74.1075 351.5,82.5C 350.671,75.011 350.171,67.3443 350,59.5C 349.283,58.9558 348.783,58.2891 348.5,57.5 Z"/></g>
<g><path style="opacity:1" fill="#e3944f" d="M 408.5,50.5 C 406.5,50.5 404.5,50.5 402.5,50.5C 403.018,60.826 403.351,71.1593 403.5,81.5C 405.167,81.5 406.833,81.5 408.5,81.5C 408.334,75.1579 408.5,68.8246 409,62.5C 409.671,61.7476 410.504,61.4142 411.5,61.5C 410.92,68.4988 410.086,75.4988 409,82.5C 406.619,83.435 404.119,83.7683 401.5,83.5C 401.5,76.8333 401.5,70.1667 401.5,63.5C 401.5,58.8333 401.5,54.1667 401.5,49.5C 404.059,49.1984 406.393,49.5318 408.5,50.5 Z"/></g>
<g><path style="opacity:1" fill="#f28a2d" d="M 408.5,50.5 C 408.993,52.8056 409.326,55.139 409.5,57.5C 411.179,57.2852 412.179,57.9519 412.5,59.5C 412.167,60.1667 411.833,60.8333 411.5,61.5C 410.504,61.4142 409.671,61.7476 409,62.5C 408.5,68.8246 408.334,75.1579 408.5,81.5C 406.833,81.5 405.167,81.5 403.5,81.5C 403.351,71.1593 403.018,60.826 402.5,50.5C 404.5,50.5 406.5,50.5 408.5,50.5 Z"/></g>
<g><path style="opacity:1" fill="#e59042" d="M 449.5,51.5 C 449.808,53.924 449.474,56.2573 448.5,58.5C 444.644,56.9967 440.644,56.33 436.5,56.5C 437.953,55.1751 437.619,54.3418 435.5,54C 433.527,53.5045 431.527,53.3379 429.5,53.5C 429.5,55.1667 429.5,56.8333 429.5,58.5C 428.5,58.5 427.5,58.5 426.5,58.5C 426.295,64.8778 426.628,71.2111 427.5,77.5C 426.203,75.6287 425.203,73.6287 424.5,71.5C 422.846,52.1722 431.18,45.5056 449.5,51.5 Z"/></g>
<g><path style="opacity:1" fill="#ecaf7b" d="M 97.5,57.5 C 97.8333,57.5 98.1667,57.5 98.5,57.5C 98.5,60.1667 98.5,62.8333 98.5,65.5C 100.921,65.1218 103.254,64.4552 105.5,63.5C 103.584,65.977 100.917,66.977 97.5,66.5C 97.5,64.1667 97.5,61.8333 97.5,59.5C 97.5,58.8333 97.5,58.1667 97.5,57.5 Z"/></g>
<g><path style="opacity:1" fill="#e3924c" d="M 391.5,52.5 C 395.858,57.2238 396.524,62.3905 393.5,68C 387.175,68.4995 380.842,68.6662 374.5,68.5C 374.575,77.162 378.575,79.8286 386.5,76.5C 389.096,75.7347 391.763,75.4013 394.5,75.5C 394.662,77.5273 394.495,79.5273 394,81.5C 393.25,82.1258 392.416,82.6258 391.5,83C 385.319,83.8192 379.319,83.6525 373.5,82.5C 378.844,82.666 384.177,82.4994 389.5,82C 394.142,80.1697 394.309,78.6697 390,77.5C 378.959,82.8881 373.459,79.5548 373.5,67.5C 376.85,67.665 380.183,67.4983 383.5,67C 384.684,65.8545 384.684,64.6879 383.5,63.5C 384.5,63.5 385.5,63.5 386.5,63.5C 386.984,60.2118 385.984,57.5452 383.5,55.5C 376.722,53.945 373.722,56.6117 374.5,63.5C 372.143,63.6633 369.81,63.4966 367.5,63C 369.134,62.5065 370.801,62.3398 372.5,62.5C 372.247,60.1727 372.914,58.1727 374.5,56.5C 372.257,55.5258 369.924,55.1924 367.5,55.5C 369.663,51.613 372.996,49.4463 377.5,49C 380.167,48.3333 382.833,48.3333 385.5,49C 387.758,49.876 389.758,51.0427 391.5,52.5 Z"/></g>
<g><path style="opacity:1" fill="#faf4ea" d="M 383.5,55.5 C 385.984,57.5452 386.984,60.2118 386.5,63.5C 385.5,63.5 384.5,63.5 383.5,63.5C 380.5,63.5 377.5,63.5 374.5,63.5C 373.722,56.6117 376.722,53.945 383.5,55.5 Z"/></g>
<g><path style="opacity:1" fill="#f6892a" d="M 383.5,55.5 C 380.695,54.6805 377.695,54.1805 374.5,54C 375.167,53.3333 375.833,52.6667 376.5,52C 388.449,48.7925 394.115,53.2925 393.5,65.5C 391.833,65.5 390.167,65.5 388.5,65.5C 388.665,62.4816 388.498,59.4816 388,56.5C 386.644,55.6198 385.144,55.2865 383.5,55.5 Z"/></g>
<g><path style="opacity:1" fill="#ee8a31" d="M 367.5,55.5 C 369.924,55.1924 372.257,55.5258 374.5,56.5C 372.914,58.1727 372.247,60.1727 372.5,62.5C 370.801,62.3398 369.134,62.5065 367.5,63C 369.81,63.4966 372.143,63.6633 374.5,63.5C 377.5,63.5 380.5,63.5 383.5,63.5C 384.684,64.6879 384.684,65.8545 383.5,67C 380.183,67.4983 376.85,67.665 373.5,67.5C 373.459,79.5548 378.959,82.8881 390,77.5C 394.309,78.6697 394.142,80.1697 389.5,82C 384.177,82.4994 378.844,82.666 373.5,82.5C 369.401,80.7364 366.734,77.7364 365.5,73.5C 364.977,67.2819 365.644,61.2819 367.5,55.5 Z"/></g>
<g><path style="opacity:1" fill="#e0924f" d="M 479.5,52.5 C 482.012,54.4784 483.512,57.1451 484,60.5C 484.667,62.8333 484.667,65.1667 484,67.5C 483.617,68.056 483.117,68.3893 482.5,68.5C 475.833,68.5 469.167,68.5 462.5,68.5C 462.232,70.099 462.566,71.4324 463.5,72.5C 463.5,73.1667 463.5,73.8333 463.5,74.5C 460.13,72.7244 459.13,70.0578 460.5,66.5C 467.776,67.4655 475.109,67.7988 482.5,67.5C 482.352,62.2498 481.352,57.2498 479.5,52.5 Z"/></g>
<g><path style="opacity:1" fill="#e4a46b" d="M 178.5,63.5 C 178.833,63.5 179.167,63.5 179.5,63.5C 179.5,65.5 179.5,67.5 179.5,69.5C 173.833,69.5 168.167,69.5 162.5,69.5C 161.527,67.0521 161.194,64.3854 161.5,61.5C 166.844,61.334 172.177,61.5006 177.5,62C 178.056,62.3826 178.389,62.8826 178.5,63.5 Z"/></g>
<g><path style="opacity:1" fill="#f08830" d="M 178.5,63.5 C 178.5,64.8333 178.5,66.1667 178.5,67.5C 173.547,68.3292 168.547,68.6625 163.5,68.5C 163.5,66.8333 163.5,65.1667 163.5,63.5C 168.5,63.5 173.5,63.5 178.5,63.5 Z"/></g>
<g><path style="opacity:1" fill="#fcd1a7" d="M 482.5,68.5 C 476.355,69.4902 470.022,69.8235 463.5,69.5C 463.5,70.5 463.5,71.5 463.5,72.5C 462.566,71.4324 462.232,70.099 462.5,68.5C 469.167,68.5 475.833,68.5 482.5,68.5 Z"/></g>
<g><path style="opacity:1" fill="#f8fbfd" d="M 435.5,58.5 C 442.132,56.7719 443.465,58.4386 439.5,63.5C 438.534,65.396 438.201,67.396 438.5,69.5C 439.5,69.5 440.5,69.5 441.5,69.5C 441.5,67.5 441.5,65.5 441.5,63.5C 443.575,63.3016 445.575,63.1349 447.5,63C 446.446,64.3876 446.28,65.8876 447,67.5C 447.308,66.6919 447.808,66.0253 448.5,65.5C 449.318,67.1083 449.985,68.7749 450.5,70.5C 446.965,70.9692 443.965,72.4692 441.5,75C 440.5,75.6667 439.5,75.6667 438.5,75C 434.476,70.0821 433.476,64.5821 435.5,58.5 Z"/></g>
<g><path style="opacity:1" fill="#fcf7ea" d="M 455.5,78.5 C 457.599,79.861 459.599,81.361 461.5,83C 467.681,83.8192 473.681,83.6525 479.5,82.5C 480.496,82.5858 481.329,82.2524 482,81.5C 482.495,79.5273 482.662,77.5273 482.5,75.5C 479.772,75.1706 477.438,75.8372 475.5,77.5C 472.291,77.5893 469.125,77.256 466,76.5C 464.624,76.3158 463.791,75.6491 463.5,74.5C 463.5,73.8333 463.5,73.1667 463.5,72.5C 463.5,71.5 463.5,70.5 463.5,69.5C 470.022,69.8235 476.355,69.4902 482.5,68.5C 483.117,68.3893 483.617,68.056 484,67.5C 484.667,65.1667 484.667,62.8333 484,60.5C 483.512,57.1451 482.012,54.4784 479.5,52.5C 477.012,50.8718 474.345,49.5384 471.5,48.5C 473.401,48.4332 475.234,48.7665 477,49.5C 478.892,46.6105 479.725,46.9438 479.5,50.5C 481.5,50.5 483.5,50.5 485.5,50.5C 485.261,56.5652 485.761,62.5652 487,68.5C 488,69.8333 489,69.8333 490,68.5C 492,70.5 492,72.5 490,74.5C 488.745,73.7894 487.579,72.956 486.5,72C 487.654,71.0862 487.487,70.2529 486,69.5C 484.667,70.1667 483.333,70.8333 482,71.5C 483.406,73.3168 484.573,75.4835 485.5,78C 484.97,80.2073 483.97,82.2073 482.5,84C 475.63,84.2209 468.797,84.7209 462,85.5C 458.226,84.5546 456.06,82.2213 455.5,78.5 Z"/></g>
<g><path style="opacity:1" fill="#fdf9f1" d="M 133.5,61.5 C 132.699,63.0418 132.366,64.7085 132.5,66.5C 135.997,65.2952 138.997,65.7952 141.5,68C 139.623,69.1853 137.623,70.1853 135.5,71C 134.33,73.1846 133.164,75.3512 132,77.5C 131.044,76.4214 130.211,75.2547 129.5,74C 130.567,71.9019 131.067,69.7352 131,67.5C 130.439,68.0219 129.772,68.3552 129,68.5C 127.403,67.1153 125.57,66.4486 123.5,66.5C 123.64,68.1238 122.973,69.2904 121.5,70C 123.473,70.4955 125.473,70.6621 127.5,70.5C 127.5,72.1667 127.5,73.8333 127.5,75.5C 125.5,75.1667 123.5,74.8333 121.5,74.5C 121.357,70.0239 119.691,69.3573 116.5,72.5C 116.709,73.086 117.043,73.586 117.5,74C 122.083,75.893 126.416,78.2263 130.5,81C 132.134,81.4935 133.801,81.6602 135.5,81.5C 133.058,83.2258 130.391,84.7258 127.5,86C 116.651,88.5546 108.318,85.2212 102.5,76C 112.284,70.1092 122.618,65.2758 133.5,61.5 Z"/></g>
<g><path style="opacity:1" fill="#fee6c5" d="M 391.5,52.5 C 393.752,52.9156 395.252,54.249 396,56.5C 396.667,60.8333 396.667,65.1667 396,69.5C 390.892,70.7041 385.725,70.7041 380.5,69.5C 375.507,70.6821 375.174,72.8488 379.5,76C 381.81,76.4966 384.143,76.6633 386.5,76.5C 378.575,79.8286 374.575,77.162 374.5,68.5C 380.842,68.6662 387.175,68.4995 393.5,68C 396.524,62.3905 395.858,57.2238 391.5,52.5 Z"/></g>
<g><path style="opacity:1" fill="#f3892c" d="M 436.5,56.5 C 434.883,57.038 433.216,57.3713 431.5,57.5C 432.329,60.4686 432.495,63.4686 432,66.5C 431.798,64.7444 431.298,63.0777 430.5,61.5C 430.167,61.8333 429.833,62.1667 429.5,62.5C 430.167,64.8333 430.833,67.1667 431.5,69.5C 431.957,70.2975 432.624,70.6309 433.5,70.5C 433.5,70.8333 433.5,71.1667 433.5,71.5C 433.5,74.1667 433.5,76.8333 433.5,79.5C 431.833,79.5 430.167,79.5 428.5,79.5C 427.662,79.1583 427.328,78.4916 427.5,77.5C 426.628,71.2111 426.295,64.8778 426.5,58.5C 427.5,58.5 428.5,58.5 429.5,58.5C 429.5,56.8333 429.5,55.1667 429.5,53.5C 431.527,53.3379 433.527,53.5045 435.5,54C 437.619,54.3418 437.953,55.1751 436.5,56.5 Z"/></g>
<g><path style="opacity:1" fill="#e9b37e" d="M 146.5,77.5 C 145.305,77.3225 144.138,76.9891 143,76.5C 141.357,77.3146 139.857,78.3146 138.5,79.5C 139.121,76.8787 140.788,75.212 143.5,74.5C 144.855,75.1882 145.855,76.1882 146.5,77.5 Z"/></g>
<g><path style="opacity:1" fill="#fdf5e6" d="M 191.5,50.5 C 185.089,56.3843 182.922,63.7177 185,72.5C 188.175,82.5826 195.008,86.0826 205.5,83C 208.481,80.5632 209.815,77.3966 209.5,73.5C 210.75,73.4226 211.583,72.756 212,71.5C 212.494,69.8659 212.66,68.1992 212.5,66.5C 211.5,66.5 210.5,66.5 209.5,66.5C 209.5,65.5 209.5,64.5 209.5,63.5C 210.5,63.5 211.5,63.5 212.5,63.5C 212.12,61.302 212.787,59.6354 214.5,58.5C 213.433,63.7815 213.267,69.1149 214,74.5C 214.852,75.5707 215.685,76.5707 216.5,77.5C 216.328,78.4916 216.662,79.1583 217.5,79.5C 218.343,81.1733 219.676,82.34 221.5,83C 226.833,83.6667 232.167,83.6667 237.5,83C 238.973,82.2904 239.64,81.1238 239.5,79.5C 240.833,79.5 242.167,79.5 243.5,79.5C 242.741,81.4308 241.407,82.9308 239.5,84C 233.208,84.0571 227.041,84.8905 221,86.5C 218.057,84.6466 216.057,81.9799 215,78.5C 213.334,81.4385 211.001,83.7719 208,85.5C 201.581,84.6871 195.081,84.1871 188.5,84C 186.781,81.3352 185.281,78.5019 184,75.5C 183.55,78.1059 182.05,79.4392 179.5,79.5C 180.093,76.4041 179.093,74.0708 176.5,72.5C 172.235,73.4386 167.902,73.7719 163.5,73.5C 163.567,72.0413 163.234,70.7079 162.5,69.5C 168.167,69.5 173.833,69.5 179.5,69.5C 179.5,67.5 179.5,65.5 179.5,63.5C 180.165,65.6979 180.832,68.0312 181.5,70.5C 182.086,70.2907 182.586,69.9574 183,69.5C 183.333,65.8333 183.667,62.1667 184,58.5C 185.887,56.9739 186.887,54.9739 187,52.5C 188.11,50.9632 189.61,50.2965 191.5,50.5 Z"/></g>
<g><path style="opacity:1" fill="#e79041" d="M 236.5,57.5 C 242.613,61.6779 243.113,66.6779 238,72.5C 237.333,74.8333 237.333,77.1667 238,79.5C 239.319,77.7505 239.819,75.7505 239.5,73.5C 241.514,73.6085 243.18,72.9418 244.5,71.5C 243.85,73.4352 243.517,75.4352 243.5,77.5C 243.5,78.1667 243.5,78.8333 243.5,79.5C 242.167,79.5 240.833,79.5 239.5,79.5C 239.64,81.1238 238.973,82.2904 237.5,83C 232.167,83.6667 226.833,83.6667 221.5,83C 219.676,82.34 218.343,81.1733 217.5,79.5C 218.765,78.4855 219.431,76.9855 219.5,75C 219.425,71.8569 218.759,68.8569 217.5,66C 218.378,64.1999 219.045,62.3666 219.5,60.5C 220.833,60.5 222.167,60.5 223.5,60.5C 222.322,64.5478 222.322,68.5478 223.5,72.5C 222.235,73.5145 221.569,75.0145 221.5,77C 221.833,78.5 222.167,80 222.5,81.5C 226.429,82.4328 230.429,82.7662 234.5,82.5C 234.5,80.8333 234.5,79.1667 234.5,77.5C 230.592,77.8719 226.925,78.7052 223.5,80C 224.428,79.6121 225.095,78.9454 225.5,78C 224.586,76.5936 223.92,75.0936 223.5,73.5C 227.196,76.5993 231.362,77.266 236,75.5C 237.77,69.5347 237.937,63.5347 236.5,57.5 Z"/></g>
<g><path style="opacity:1" fill="#de9859" d="M 479.5,82.5 C 478.411,80.8829 476.744,80.0496 474.5,80C 476.256,79.7978 477.922,79.2978 479.5,78.5C 478.311,77.5713 476.978,77.238 475.5,77.5C 477.438,75.8372 479.772,75.1706 482.5,75.5C 482.662,77.5273 482.495,79.5273 482,81.5C 481.329,82.2524 480.496,82.5858 479.5,82.5 Z"/></g>
<g><path style="opacity:1" fill="#f58927" d="M 223.5,72.5 C 223.5,72.8333 223.5,73.1667 223.5,73.5C 223.92,75.0936 224.586,76.5936 225.5,78C 225.095,78.9454 224.428,79.6121 223.5,80C 226.925,78.7052 230.592,77.8719 234.5,77.5C 234.5,79.1667 234.5,80.8333 234.5,82.5C 230.429,82.7662 226.429,82.4328 222.5,81.5C 222.167,80 221.833,78.5 221.5,77C 221.569,75.0145 222.235,73.5145 223.5,72.5 Z"/></g>
<g><path style="opacity:1" fill="#ea8e38" d="M 433.5,71.5 C 437.623,77.3744 442.623,78.0411 448.5,73.5C 448.833,74.5 449.167,75.5 449.5,76.5C 448.796,78.5351 448.129,80.5351 447.5,82.5C 442.204,83.5095 436.871,83.6761 431.5,83C 430.29,81.9609 429.29,80.7942 428.5,79.5C 430.167,79.5 431.833,79.5 433.5,79.5C 433.5,76.8333 433.5,74.1667 433.5,71.5 Z"/></g>
<g><path style="opacity:1" fill="#fdf1d7" d="M 365.5,73.5 C 366.734,77.7364 369.401,80.7364 373.5,82.5C 379.319,83.6525 385.319,83.8192 391.5,83C 392.416,82.6258 393.25,82.1258 394,81.5C 394.495,79.5273 394.662,77.5273 394.5,75.5C 397.622,79.3001 396.955,82.1334 392.5,84C 383.876,86.3911 375.542,85.8911 367.5,82.5C 366.539,79.5739 365.873,76.5739 365.5,73.5 Z"/></g>
<g><path style="opacity:1" fill="#fdf2d9" d="M 412.5,59.5 C 412.833,59.5 413.167,59.5 413.5,59.5C 411.428,66.4118 411.095,73.4118 412.5,80.5C 410.973,82.1933 409.64,84.0266 408.5,86C 404.135,87.4594 401.135,86.1261 399.5,82C 400.066,75.6755 400.732,69.5089 401.5,63.5C 401.5,70.1667 401.5,76.8333 401.5,83.5C 404.119,83.7683 406.619,83.435 409,82.5C 410.086,75.4988 410.92,68.4988 411.5,61.5C 411.833,60.8333 412.167,60.1667 412.5,59.5 Z"/></g>
<g><path style="opacity:1" fill="#fef8e9" d="M 292.5,59.5 C 292.833,59.5 293.167,59.5 293.5,59.5C 293.5,60.8333 293.5,62.1667 293.5,63.5C 293.5,70.1667 293.5,76.8333 293.5,83.5C 296.059,83.8016 298.393,83.4682 300.5,82.5C 301.117,82.3893 301.617,82.056 302,81.5C 302.667,72.8333 302.667,64.1667 302,55.5C 300.188,51.3919 297.021,49.3919 292.5,49.5C 291.5,49.5 290.5,49.5 289.5,49.5C 288.833,49.5 288.167,49.5 287.5,49.5C 288.694,48.2227 290.36,47.5561 292.5,47.5C 296.023,48.06 299.357,49.06 302.5,50.5C 302.281,49.325 302.614,48.325 303.5,47.5C 303.833,47.8333 304.167,48.1667 304.5,48.5C 303.853,60.1353 303.186,71.802 302.5,83.5C 299.103,85.164 295.436,85.9973 291.5,86C 289.116,87.4096 287.45,89.4096 286.5,92C 285.234,92.3095 284.067,92.8095 283,93.5C 282.833,93.1667 282.667,92.8333 282.5,92.5C 284.247,89.3424 286.247,86.3424 288.5,83.5C 289.086,83.7093 289.586,84.0426 290,84.5C 290.471,82.7536 291.138,81.087 292,79.5C 292.5,72.8417 292.666,66.175 292.5,59.5 Z"/></g>
<g><path style="opacity:1" fill="#dd9a60" d="M 293.5,63.5 C 294.328,69.3193 294.828,75.3193 295,81.5C 296.699,82.4061 298.533,82.7394 300.5,82.5C 298.393,83.4682 296.059,83.8016 293.5,83.5C 293.5,76.8333 293.5,70.1667 293.5,63.5 Z"/></g>
<g><path style="opacity:1" fill="#197db2" d="M 73.5,32.5 C 78.6307,55.4884 83.6307,78.4884 88.5,101.5C 86.5,101.5 84.5,101.5 82.5,101.5C 82.5,102.5 82.5,103.5 82.5,104.5C 95.7215,104.868 95.7215,105.868 82.5,107.5C 75.6439,82.0858 69.3105,56.4192 63.5,30.5C 60.3586,29.6787 57.0252,29.1787 53.5,29C 51.3268,27.1353 50.9934,24.9686 52.5,22.5C 57.8023,21.3372 63.1357,21.1705 68.5,22C 70.4665,25.422 72.1332,28.922 73.5,32.5 Z"/></g>
<g><path style="opacity:1" fill="#fbe6d1" d="M 143.5,86.5 C 141.827,88.8394 139.827,90.8394 137.5,92.5C 138.833,93.1667 140.167,93.8333 141.5,94.5C 138.23,95.1919 134.897,95.1919 131.5,94.5C 135.176,91.5172 139.176,88.8505 143.5,86.5 Z"/></g>
<g><path style="opacity:1" fill="#197fbb" d="M 88.5,101.5 C 112.339,101.169 136.006,101.502 159.5,102.5C 159.5,102.833 159.5,103.167 159.5,103.5C 138.333,105.159 117,105.493 95.5,104.5C 95.5,105.5 95.5,106.5 95.5,107.5C 100.844,107.334 106.177,107.501 111.5,108C 103.656,108.171 95.989,108.671 88.5,109.5C 86.8333,109.5 85.1667,109.5 83.5,109.5C 83.1667,108.833 82.8333,108.167 82.5,107.5C 95.7215,105.868 95.7215,104.868 82.5,104.5C 82.5,103.5 82.5,102.5 82.5,101.5C 84.5,101.5 86.5,101.5 88.5,101.5 Z"/></g>
<g><path style="opacity:1" fill="#0b7ab0" d="M 159.5,103.5 C 160.735,105.017 160.735,106.684 159.5,108.5C 135.843,109.5 112.176,109.833 88.5,109.5C 95.989,108.671 103.656,108.171 111.5,108C 106.177,107.501 100.844,107.334 95.5,107.5C 95.5,106.5 95.5,105.5 95.5,104.5C 117,105.493 138.333,105.159 159.5,103.5 Z"/></g>
<g><path style="opacity:1" fill="#daf1f8" d="M 159.5,103.5 C 159.5,103.167 159.5,102.833 159.5,102.5C 161.346,102.222 162.68,102.889 163.5,104.5C 163.154,105.696 162.654,105.696 162,104.5C 161.861,107.825 160.861,110.825 159,113.5C 157.192,111.604 155.025,111.104 152.5,112C 154.81,113.637 156.31,115.804 157,118.5C 160.518,132.489 155.685,137.155 142.5,132.5C 150.565,133.601 154.898,130.101 155.5,122C 153.89,113.685 148.89,110.685 140.5,113C 136.205,116.093 134.538,120.26 135.5,125.5C 135.5,125.833 135.5,126.167 135.5,126.5C 137.177,128.54 138.844,130.54 140.5,132.5C 137.901,132.451 135.734,131.451 134,129.5C 133.172,124.798 133.338,120.131 134.5,115.5C 136.303,114.863 137.636,113.697 138.5,112C 134.683,110.977 131.183,111.477 128,113.5C 122.803,111.58 117.303,110.913 111.5,111.5C 111.671,114.797 111.005,115.131 109.5,112.5C 106.914,111.52 104.247,111.187 101.5,111.5C 101.5,112.5 101.5,113.5 101.5,114.5C 97.2394,112.2 92.9061,112.033 88.5,114C 87.6195,114.708 86.9528,115.542 86.5,116.5C 85.8826,116.611 85.3826,116.944 85,117.5C 84.3412,120.888 84.5078,124.221 85.5,127.5C 84.5,127.5 83.5,127.5 82.5,127.5C 82.5865,123.143 82.9198,118.81 83.5,114.5C 84.5,114.5 85.5,114.5 86.5,114.5C 86.5,113.5 86.5,112.5 86.5,111.5C 84.8212,111.715 83.8212,111.048 83.5,109.5C 85.1667,109.5 86.8333,109.5 88.5,109.5C 112.176,109.833 135.843,109.5 159.5,108.5C 160.735,106.684 160.735,105.017 159.5,103.5 Z"/></g>
<g><path style="opacity:1" fill="#237ba8" d="M 142.5,132.5 C 141.833,132.5 141.167,132.5 140.5,132.5C 138.844,130.54 137.177,128.54 135.5,126.5C 138.267,127.051 140.6,128.384 142.5,130.5C 151.855,130.134 155.188,125.468 152.5,116.5C 144.094,113.65 142.428,115.65 147.5,122.5C 145.184,123.496 143.517,125.163 142.5,127.5C 141.585,126.672 140.919,125.672 140.5,124.5C 142.546,122.218 143.546,119.551 143.5,116.5C 138.333,117.331 135.666,120.331 135.5,125.5C 134.538,120.26 136.205,116.093 140.5,113C 148.89,110.685 153.89,113.685 155.5,122C 154.898,130.101 150.565,133.601 142.5,132.5 Z"/></g>
<g><path style="opacity:1" fill="#097cb7" d="M 86.5,127.5 C 86.1667,127.5 85.8333,127.5 85.5,127.5C 84.5078,124.221 84.3412,120.888 85,117.5C 85.3826,116.944 85.8826,116.611 86.5,116.5C 91.3114,114.924 95.978,115.257 100.5,117.5C 102.288,122.189 101.621,126.356 98.5,130C 96.5,130.667 94.5,130.667 92.5,130C 91.0448,127.984 89.0448,127.151 86.5,127.5 Z"/></g>
<g><path style="opacity:1" fill="#037ebb" d="M 135.5,126.5 C 135.5,126.167 135.5,125.833 135.5,125.5C 135.666,120.331 138.333,117.331 143.5,116.5C 143.546,119.551 142.546,122.218 140.5,124.5C 140.919,125.672 141.585,126.672 142.5,127.5C 143.517,125.163 145.184,123.496 147.5,122.5C 142.428,115.65 144.094,113.65 152.5,116.5C 155.188,125.468 151.855,130.134 142.5,130.5C 140.6,128.384 138.267,127.051 135.5,126.5 Z"/></g>
<g><path style="opacity:1" fill="#2378a1" d="M 101.5,114.5 C 105.658,120.239 105.325,125.739 100.5,131C 97.2976,132.483 93.9643,132.817 90.5,132C 88.249,131.252 86.9156,129.752 86.5,127.5C 89.0448,127.151 91.0448,127.984 92.5,130C 94.5,130.667 96.5,130.667 98.5,130C 101.621,126.356 102.288,122.189 100.5,117.5C 95.978,115.257 91.3114,114.924 86.5,116.5C 86.9528,115.542 87.6195,114.708 88.5,114C 92.9061,112.033 97.2394,112.2 101.5,114.5 Z"/></g>
</svg>
